<svg xmlns="http://www.w3.org/2000/svg" viewBox="0 0 24 24" width="48" height="48" fill="none" stroke="currentColor" stroke-width="2" stroke-linecap="round" stroke-linejoin="round" style="color:#111111"><ellipse cx="9" cy="5" rx="6" ry="2.5"/><path d="M3 5v9c0 1.3 2.7 2.4 6 2.4"/><path d="M15 5v4.5"/><path d="M3 9.5c0 1.3 2.7 2.4 6 2.4 1 0 2-.1 2.8-.3"/><circle cx="17" cy="17" r="2.6"/><circle cx="17" cy="17" r="1"/><path d="M17 13.4v-1.1M17 21.6v-1.1M21.6 17h-1.1M13.4 17h-1.1M20.1 13.9l-.8.8M14.7 19.3l-.8.8M20.1 20.1l-.8-.8M14.7 14.7l-.8-.8"/></svg>