<svg xmlns="http://www.w3.org/2000/svg" viewBox="0 0 24 24" width="48" height="48" fill="none" stroke="currentColor" stroke-width="2" stroke-linecap="round" stroke-linejoin="round" style="color:#111111"><path d="M14 2H6a2 2 0 0 0-2 2v16a2 2 0 0 0 2 2h12a2 2 0 0 0 2-2V8z"/><polyline points="14 2 14 8 20 8"/><path d="M13.8 11.4c-.5-.7-1.3-1-2.1-1-1.2 0-2.1.7-2.1 1.6s.9 1.6 2.1 1.6 2.1.7 2.1 1.6-.9 1.6-2.1 1.6c-.85 0-1.6-.35-2.1-1"/><line x1="11.7" y1="9.2" x2="11.7" y2="10.4"/><line x1="11.7" y1="16.4" x2="11.7" y2="17.6"/></svg>